<?xml version="1.0" encoding="UTF-8" standalone="no"?>
<!-- Generator: Adobe Illustrator 21.1.0, SVG Export Plug-In . SVG Version: 6.00 Build 0)  -->

<svg
   version="1.1"
   id="Layer_1"
   x="0px"
   y="0px"
   viewBox="0 0 100 100"
   style="enable-background:new 0 0 100 100;"
   xml:space="preserve"
   sodipodi:docname="github1.svg"
   inkscape:version="1.2.2 (1:1.2.2+202212051552+b0a8486541)"
   xmlns:inkscape="http://www.inkscape.org/namespaces/inkscape"
   xmlns:sodipodi="http://sodipodi.sourceforge.net/DTD/sodipodi-0.dtd"
   xmlns="http://www.w3.org/2000/svg"
   xmlns:svg="http://www.w3.org/2000/svg"><defs
   id="defs19"><linearGradient
     id="linearGradient13048"
     inkscape:swatch="solid"><stop
       style="stop-color:#00b900;stop-opacity:1;"
       offset="0"
       id="stop13046" /></linearGradient></defs><sodipodi:namedview
   id="namedview17"
   pagecolor="#ffffff"
   bordercolor="#000000"
   borderopacity="0.25"
   inkscape:showpageshadow="2"
   inkscape:pageopacity="0.0"
   inkscape:pagecheckerboard="0"
   inkscape:deskcolor="#d1d1d1"
   showgrid="false"
   inkscape:zoom="4.8658515"
   inkscape:cx="39.047636"
   inkscape:cy="49.939872"
   inkscape:window-width="1366"
   inkscape:window-height="716"
   inkscape:window-x="0"
   inkscape:window-y="26"
   inkscape:window-maximized="1"
   inkscape:current-layer="Layer_1" />
<style
   type="text/css"
   id="style2">
	.st0{opacity:0.3;}
	.st1{fill:#48A359;}
	.st2{fill:#EAEAEA;}
</style>
<g
   id="g12"
   style="fill:#00e100;fill-opacity:1">
	<g
   class="st0"
   id="g6"
   style="display:inline;fill:#00e100;fill-opacity:1">
		<polygon
   class="st1"
   points="100.1,101 0.1,1 50,1 100,51.2 "
   id="polygon4"
   style="fill:#007301;fill-opacity:1" />
	</g>
	<g
   id="g10"
   style="display:inline;fill:#00e100;fill-opacity:1">
		<polygon
   class="st1"
   points="100.1,100 0.1,0 50,0 100,50.2 "
   id="polygon8"
   style="display:inline;fill:#00e100;fill-opacity:1" />
	</g>
</g>
<path
   class="st2"
   d="M48.6,22.2l-4-4c-0.1-0.1-0.3-0.1-0.4,0l-1.9,1.9c-0.1,0.1-0.1,0.3,0,0.4l1.5,1.5l-2.4,2.4c0,0-0.5-0.2-1.4-1.2  c-1.1-1.1-2.3-3.1,1.2-6.6c3.5-3.5,5.6-2.3,7.1-0.7c1.3,1.3,1.7,2.2,1.9,2.6c0.1,0.2,0.3,0.1,0.4,0l2.3-1.4c0,0,0.1-0.1,0.1-0.2  c0-0.3-0.4-1.7-2.7-4c-2.6-2.6-6.5-4.2-11.9,1.2c-5.4,5.4-3.1,9.3-0.5,12c2.2,2.2,4.4,2.6,4.4,2.6c0.1,0,0.2,0,0.2-0.1l6.1-6.1  C48.7,22.4,48.7,22.3,48.6,22.2 M73.9,37.8c0.1-0.1,0.1-0.3,0-0.4l-2.2-2.2c-0.1-0.1-0.3-0.1-0.4,0c0,0-4.3,4.3-4.3,4.3L63.5,36  l4.3-4.3c0.1-0.1,0.1-0.3,0-0.4l-2.2-2.2c-0.1-0.1-0.3-0.1-0.4,0L53.5,40.8c-0.1,0.1-0.1,0.3,0,0.4l2.2,2.2c0.1,0.1,0.3,0.1,0.4,0  l5-5l3.5,3.5c0,0-5,5-5,5c-0.1,0.1-0.1,0.3,0,0.4l2.2,2.2c0.1,0.1,0.3,0.1,0.4,0L73.9,37.8 M56.1,23.1c0.8-0.8,0.8-2.1,0-2.9  c-0.8-0.8-2.1-0.8-2.9,0c-0.8,0.8-0.8,2.1,0,2.9C54,23.9,55.3,23.9,56.1,23.1 M48.2,30.6c0.3-0.3,5.4-5.4,5.4-5.4  c0.1-0.1,0.1-0.3,0-0.4l-2.2-2.2c-0.1-0.1-0.3-0.1-0.4,0c0,0-6.5,6.5-7.7,7.7c-0.2,0.2-0.2,0.4,0,0.6c0,0,1,1,2,2  c0.2,0.2,0.4,0.2,0.6,0C46.3,32.6,47.9,31,48.2,30.6 M78.7,50l-2.2-2.2c-0.1-0.1-0.3-0.1-0.4,0l-5.7,5.7c0,0-1-0.2-1.8-1  c-0.8-0.8-0.7-1.4,0.1-2.2c0.8-0.8,5-5,5-5c0.1-0.1,0.1-0.3,0-0.4l-2.2-2.2c-0.1-0.1-0.3-0.1-0.4,0c0,0-3.1,3.1-5.4,5.4  c-2.3,2.3-1.6,4.2,0.2,6c1.5,1.5,3.4,1.8,3.4,1.8S69,56.4,69,56.5c0,0.1,0,0.2,0.1,0.3l1.4,1.4c0.1,0.1,0.3,0.1,0.4,0l7.9-7.8  C78.8,50.2,78.8,50.1,78.7,50 M77.6,61.5c-0.7-0.8-0.9-1.7-0.9-1.7l3.7-3.7c0,0,0.8,0.2,1.5,0.8c0.9,0.7,1.4,1.7-0.5,3.6  C79.3,62.5,78.6,62.6,77.6,61.5z M85,55.8c-1.3-1.3-2.7-1.6-2.7-1.6l4-4c0.1-0.1,0.1-0.3,0-0.4l-2.2-2.2c-0.1-0.1-0.3-0.1-0.4,0  L72,59.3c-0.1,0.1-0.1,0.3,0,0.4l1.6,1.6c0.1,0.1,0.2,0.1,0.3,0.1c0.1,0,0.6-0.4,0.6-0.4s0,1.8,1.8,3.5c2,2,4.2,2.2,7.8-1.4  C87.7,59.4,86.3,57,85,55.8 M60.2,31.5l-1.7-1.7l2.2-2.2c0.1-0.1,0.1-0.2,0-0.3L58.5,25c-0.1-0.1-0.2-0.1-0.3,0l-2.3,2.3  c0,0-1.4-0.9-1.5-0.9c-0.1-0.1-0.2,0-0.3,0l-1.4,1.4c-0.1,0.1-0.1,0.3,0,0.4l1.2,1.2c0,0-1.5,1.5-3.5,3.5c-2.6,2.6-1,4.6,0.2,5.8  c0.6,0.6,1.4,1,1.5,1.1c0.1,0,0.2,0,0.3-0.1l1.6-1.6c0.1-0.1,0.1-0.3,0-0.4c-0.1-0.1-0.4-0.3-0.6-0.6c-0.8-0.8-0.7-1.5-0.2-2  c0.5-0.5,3.3-3.3,3.3-3.3l1.7,1.7c0.1,0.1,0.3,0.1,0.4,0l1.8-1.8C60.3,31.8,60.3,31.6,60.2,31.5"
   id="path14" />
</svg>
